HIERARCHY
ROOT Hips
{
	OFFSET 0.00000 0.00000 0.00000
	CHANNELS 6 Xposition Yposition Zposition Zrotation Yrotation Xrotation 
	JOINT LHipJoint
	{
		OFFSET 0 0 0
		CHANNELS 3 Zrotation Yrotation Xrotation
		JOINT LeftUpLeg
		{
			OFFSET 1.36337 -1.57426 1.11036
			CHANNELS 3 Zrotation Yrotation Xrotation
			JOINT LeftLeg
			{
				OFFSET 2.38468 -6.55187 0.00000
				CHANNELS 3 Zrotation Yrotation Xrotation
				JOINT LeftFoot
				{
					OFFSET 2.37166 -6.51609 0.00000
					CHANNELS 3 Zrotation Yrotation Xrotation
					JOINT LeftToeBase
					{
						OFFSET 0.29078 -0.79891 2.01393
						CHANNELS 3 Zrotation Yrotation Xrotation
						End Site
						{
							OFFSET 0.00000 -0.00000 1.07924
						}
					}
				}
			}
		}
	}
	JOINT RHipJoint
	{
		OFFSET 0 0 0
		CHANNELS 3 Zrotation Yrotation Xrotation
		JOINT RightUpLeg
		{
			OFFSET -1.36349 -1.57426 1.11036
			CHANNELS 3 Zrotation Yrotation Xrotation
			JOINT RightLeg
			{
				OFFSET -2.29562 -6.30717 0.00000
				CHANNELS 3 Zrotation Yrotation Xrotation
				JOINT RightFoot
				{
					OFFSET -2.40985 -6.62100 0.00000
					CHANNELS 3 Zrotation Yrotation Xrotation
					JOINT RightToeBase
					{
						OFFSET -0.23197 -0.63733 1.92232
						CHANNELS 3 Zrotation Yrotation Xrotation
						End Site
						{
							OFFSET -0.00000 -0.00000 1.01562
						}
					}
				}
			}
		}
	}
	JOINT LowerBack
	{
		OFFSET 0 0 0
		CHANNELS 3 Zrotation Yrotation Xrotation
		JOINT Spine
		{
			OFFSET -0.08565 2.03602 -0.24562
			CHANNELS 3 Zrotation Yrotation Xrotation
			JOINT Spine1
			{
				OFFSET -0.00036 2.05693 0.00216
				CHANNELS 3 Zrotation Yrotation Xrotation
				JOINT Neck
				{
					OFFSET 0 0 0
					CHANNELS 3 Zrotation Yrotation Xrotation
					JOINT Neck1
					{
						OFFSET -0.03664 1.69515 0.31789
						CHANNELS 3 Zrotation Yrotation Xrotation
						JOINT Head
						{
							OFFSET 0.00932 1.70181 -0.46013
							CHANNELS 3 Zrotation Yrotation Xrotation
							End Site
							{
								OFFSET 0.01243 1.77620 -0.19377
							}
						}
					}
				}
				JOINT LeftShoulder
				{
					OFFSET 0 0 0
					CHANNELS 3 Zrotation Yrotation Xrotation
					JOINT LeftArm
					{
						OFFSET 3.74344 0.81315 -0.36647
						CHANNELS 3 Zrotation Yrotation Xrotation
						JOINT LeftForeArm
						{
							OFFSET 4.97185 -0.00000 -0.00000
							CHANNELS 3 Zrotation Yrotation Xrotation
							JOINT LeftHand
							{
								OFFSET 3.35811 -0.00000 0.00000
								CHANNELS 3 Zrotation Yrotation Xrotation
								JOINT LeftFingerBase
								{
									OFFSET 0 0 0
									CHANNELS 3 Zrotation Yrotation Xrotation
									JOINT LeftHandIndex1
									{
										OFFSET 0.62278 -0.00000 0.00000
										CHANNELS 3 Zrotation Yrotation Xrotation
										End Site
										{
											OFFSET 0.50210 -0.00000 0.00000
										}
									}
								}
								JOINT LThumb
								{
									OFFSET 0 0 0
									CHANNELS 3 Zrotation Yrotation Xrotation
									End Site
									{
										OFFSET 0.50976 -0.00000 0.50976
									}
								}
							}
						}
					}
				}
				JOINT RightShoulder
				{
					OFFSET 0 0 0
					CHANNELS 3 Zrotation Yrotation Xrotation
					JOINT RightArm
					{
						OFFSET -3.75385 0.50666 -0.06525
						CHANNELS 3 Zrotation Yrotation Xrotation
						JOINT RightForeArm
						{
							OFFSET -4.96493 -0.00000 -0.00000
							CHANNELS 3 Zrotation Yrotation Xrotation
							JOINT RightHand
							{
								OFFSET -3.34929 -0.00000 0.00000
								CHANNELS 3 Zrotation Yrotation Xrotation
								JOINT RightFingerBase
								{
									OFFSET 0 0 0
									CHANNELS 3 Zrotation Yrotation Xrotation
									JOINT RightHandIndex1
									{
										OFFSET -0.63804 -0.00000 0.00000
										CHANNELS 3 Zrotation Yrotation Xrotation
										End Site
										{
											OFFSET -0.51441 -0.00000 0.00000
										}
									}
								}
								JOINT RThumb
								{
									OFFSET 0 0 0
									CHANNELS 3 Zrotation Yrotation Xrotation
									End Site
									{
										OFFSET -0.52226 -0.00000 0.52226
									}
								}
							}
						}
					}
				}
			}
		}
	}
}
MOTION
Frames: 15
Frame Time: .0083333
-21.2964 14.3324 -0.5543 0 0 0 0 0 0 -21 0 0 0 0 0 0 0 0 0 0 0 0 0 0 21 0 0 0 0 0 0 0 0 0 0 0 0 0 0 0 0 0 0 0 0 0 0 -16 0 0 21 0 0 11 0 0 0 -8 0 0 0 0 0 0 0 0 0 0 0 0 0 0 0 0 0 0 0 0 8 0 0 0 0 0 0 0 0 0 0 0 0 0 0 0 0 0
-21.2964 14.3324 -0.5543 176.6270 3.6601 -165.9160 0.0000 0.0000 0.0000 -7.6997 6.4166 -54.4357 11.8609 18.3312 65.5473 1.2124 -1.4855 -20.3787 2.0795 -9.0297 -25.8884 0.0000 0.0000 0.0000 -6.6337 -8.4458 -51.4490 -9.0431 -16.8354 56.2392 -0.5639 1.6154 -13.7211 -1.1517 6.8141 -19.1657 -2.4700 0.3864 21.4652 0.0159 1.0071 5.8281 1.1248 0.9313 -5.6573 0.1484 2.5377 -28.0408 -8.2563 5.3546 12.4572 -2.0483 1.7271 8.6746 0.0000 0.0000 0.0000 -81.4029 -28.9747 33.3933 52.6178 -53.9982 -28.2786 -0.0000 0.0000 -21.5041 35.2273 -14.2010 -9.8279 -7.1250 0.0000 -0.0000 5.2001 12.8201 -3.9332 0.0000 0.0000 0.0000 80.2694 28.2429 20.8244 -53.9759 54.4784 -29.3807 0.0000 -0.0000 -7.0750 -24.1133 -28.9867 12.2385 7.1250 -0.0000 -0.0000 7.9543 -61.0620 -3.1237
-21.2916 14.3310 -0.5570 176.6980 3.6746 -165.9430 0.0000 0.0000 0.0000 -7.5938 6.5141 -54.4385 11.8859 18.3420 65.6268 1.2145 -1.6055 -20.3658 2.0637 -8.9975 -25.7876 0.0000 0.0000 0.0000 -6.5802 -8.2656 -51.3282 -9.0181 -16.8193 56.1526 -0.5547 1.3922 -13.6584 -1.1753 6.8811 -19.3637 -2.2804 0.4145 21.4698 -0.0102 1.0881 5.8521 0.9677 0.9712 -5.6347 0.2541 2.5117 -27.9717 -8.1739 5.2494 12.4083 -2.0534 1.6927 8.6403 -0.0000 0.0000 0.0000 -81.1772 -28.9861 33.5760 52.6286 -54.0022 -28.2874 -0.0000 0.0000 -21.9207 35.0226 -14.3247 -9.8366 -7.1250 0.0000 -0.0000 5.0468 12.7116 -3.8278 -0.0000 0.0000 0.0000 80.2691 28.3706 20.7287 -54.1175 54.5269 -29.4960 0.0000 -0.0000 -7.1257 -24.2542 -29.0490 12.3402 7.1250 -0.0000 -0.0000 7.8271 -61.1609 -3.0917
-21.2878 14.3300 -0.5614 176.7360 3.6865 -165.9460 0.0000 0.0000 0.0000 -7.5242 6.5663 -54.4372 11.8903 18.3439 65.6407 1.2125 -1.6955 -20.3254 2.0166 -8.9005 -25.4846 0.0000 0.0000 0.0000 -6.5403 -8.1833 -51.2228 -8.9773 -16.7931 56.0116 -0.5495 1.3454 -13.6040 -1.2265 7.0240 -19.7863 -2.2139 0.4065 21.4125 0.0094 1.0997 5.8906 0.9494 0.9774 -5.5637 0.3159 2.5331 -27.9392 -8.1322 5.2370 12.3424 -2.0507 1.6966 8.6111 -0.0000 -0.0000 0.0000 -81.0474 -28.9406 33.5004 52.7121 -54.0324 -28.3549 -0.0000 0.0000 -21.9669 34.5499 -14.1535 -9.5572 -7.1250 0.0000 -0.0000 4.7575 12.9999 -3.5780 -0.0000 -0.0000 0.0000 80.2462 28.5028 20.8444 -54.4167 54.6286 -29.7398 0.0000 -0.0000 -7.3986 -24.6323 -29.1368 12.5850 7.1250 -0.0000 -0.0000 7.4390 -61.3458 -2.9701
-21.2856 14.3368 -0.5665 176.7670 3.7036 -165.9360 0.0000 0.0000 0.0000 -7.4568 6.5859 -54.4140 11.8907 18.3440 65.6418 1.2125 -1.8824 -20.2787 1.9165 -8.6900 -24.8304 0.0000 0.0000 0.0000 -6.5630 -8.0538 -51.1292 -8.9502 -16.7756 55.9179 -0.5476 1.3626 -13.5757 -1.1860 6.9112 -19.4526 -2.1388 0.3761 21.3864 0.0154 1.0782 5.9041 0.9192 0.9666 -5.5343 0.3635 2.5512 -27.9432 -8.1387 5.2409 12.2932 -2.0597 1.7019 8.5961 -0.0000 -0.0000 0.0000 -80.9741 -28.9133 33.3294 52.6848 -54.0226 -28.3329 -0.0000 0.0000 -21.8392 33.9747 -13.8577 -9.1684 -7.1250 0.0000 -0.0000 4.4146 13.4494 -3.2767 -0.0000 -0.0000 0.0000 80.3215 28.5312 21.0199 -54.7218 54.7310 -29.9888 0.0000 -0.0000 -7.5251 -24.3847 -29.4534 12.5655 7.1250 -0.0000 -0.0000 7.9058 -61.6075 -3.2067
-21.2836 14.3448 -0.5707 176.7820 3.7096 -165.8990 0.0000 0.0000 0.0000 -7.4224 6.5783 -54.4044 11.8813 18.3400 65.6122 1.2147 -1.9278 -20.2869 1.9133 -8.6831 -24.8089 0.0000 0.0000 0.0000 -6.6191 -7.9286 -51.1117 -8.9437 -16.7714 55.8953 -0.5503 1.4683 -13.5839 -1.1065 6.6833 -18.7805 -2.0796 0.3273 21.4116 0.0152 1.0246 5.8935 0.8984 0.9399 -5.5566 0.0007 2.5186 -28.1965 -7.6320 5.2305 12.4154 -1.8294 1.7198 8.6486 0.0000 -0.0000 0.0000 -80.8127 -28.8690 33.1737 52.6550 -54.0118 -28.3087 -0.0000 0.0000 -21.9537 33.8791 -13.6790 -9.0223 -7.1250 0.0000 -0.0000 4.3743 13.6754 -3.2257 0.0000 -0.0000 0.0000 80.2993 28.5449 21.2750 -54.8511 54.7740 -30.0943 0.0000 -0.0000 -7.6677 -23.9416 -29.6245 12.3789 7.1250 -0.0000 -0.0000 8.5199 -61.6695 -3.4702
-21.2797 14.3458 -0.5750 176.7590 3.7513 -165.8190 0.0000 0.0000 0.0000 -7.4415 6.5758 -54.4469 11.8679 18.3342 65.5694 1.2182 -1.8729 -20.3303 1.9488 -8.7585 -25.0428 0.0000 0.0000 0.0000 -6.6040 -7.9270 -51.2271 -8.9606 -16.7823 55.9538 -0.5555 1.5153 -13.6388 -1.0556 6.5328 -18.3383 -2.0178 0.2831 21.3442 -0.0601 0.9888 5.9658 0.7933 0.9256 -5.4405 -0.6489 2.4498 -28.8090 -6.6564 5.1931 12.6209 -1.3949 1.7513 8.7601 0.0000 -0.0000 0.0000 -80.4588 -28.9354 33.0329 52.6421 -54.0071 -28.2983 -0.0000 0.0000 -22.4198 33.9726 -13.8387 -9.1556 -7.1250 0.0000 -0.0000 4.4157 13.4720 -3.2754 0.0000 -0.0000 0.0000 80.2401 28.7247 21.4473 -54.9975 54.8224 -30.2139 0.0000 -0.0000 -7.8645 -23.5931 -29.3279 12.0748 7.1250 -0.0000 -0.0000 8.7473 -61.2800 -3.4829
-21.2753 14.3431 -0.5795 176.7500 3.8077 -165.7510 0.0000 0.0000 0.0000 -7.4695 6.6098 -54.4844 11.8512 18.3270 65.5164 1.2178 -1.7756 -20.3510 2.0049 -8.8762 -25.4090 0.0000 0.0000 0.0000 -6.5327 -7.9804 -51.3604 -8.9860 -16.7987 56.0416 -0.5602 1.4781 -13.7071 -1.1425 6.7877 -19.0878 -1.9257 0.3170 21.2889 -0.1457 1.0428 5.9493 0.6359 0.9496 -5.4292 -0.5729 2.4515 -28.6756 -6.5379 5.1184 12.3506 -1.3779 1.7459 8.6389 0.0000 0.0000 0.0000 -80.2094 -28.8231 33.0826 52.5602 -53.9773 -28.2320 -0.0000 0.0000 -22.9309 33.7770 -14.2104 -9.3245 -7.1250 0.0000 -0.0000 4.2357 13.0703 -3.1770 0.0000 0.0000 0.0000 80.2405 28.5916 21.3804 -55.3392 54.9343 -30.4934 0.0000 -0.0000 -7.9289 -23.1761 -28.9601 11.7110 7.1250 -0.0000 -0.0000 9.0107 -60.8025 -3.4866
-21.2704 14.3409 -0.5825 176.7110 3.8548 -165.7380 0.0000 0.0000 0.0000 -7.5539 6.6644 -54.4617 11.8304 18.3180 65.4501 1.2139 -1.5727 -20.3687 2.1151 -9.1018 -26.1141 0.0000 0.0000 0.0000 -6.6160 -7.9346 -51.4040 -9.0003 -16.8079 56.0911 -0.5657 1.5258 -13.7652 -1.0766 6.5955 -18.5224 -2.0501 0.2492 21.3204 -0.0383 0.9389 5.9754 0.8485 0.9008 -5.4168 -0.6518 2.5210 -28.5401 -6.7324 5.2738 11.9966 -1.4077 1.8169 8.5062 -0.0000 -0.0000 0.0000 -80.2600 -28.6984 32.7163 52.4929 -53.9528 -28.1776 -0.0000 0.0000 -23.0097 33.7525 -14.2094 -9.3153 -7.1250 0.0000 -0.0000 4.2195 13.0758 -3.1642 -0.0000 -0.0000 0.0000 79.9834 28.6324 21.7424 -55.5036 54.9876 -30.6281 0.0000 -0.0000 -8.1358 -23.1776 -28.6404 11.5968 7.1250 -0.0000 -0.0000 8.8277 -60.4778 -3.3469
-21.2652 14.3444 -0.5843 176.6520 3.9247 -165.7350 0.0000 0.0000 0.0000 -7.5874 6.6868 -54.4145 11.8183 18.3128 65.4118 1.2172 -1.6271 -20.3830 2.0433 -8.9556 -25.6566 0.0000 0.0000 0.0000 -6.7787 -7.8204 -51.4151 -9.0001 -16.8078 56.0904 -0.5670 1.6007 -13.7643 -0.9445 6.1898 -17.3361 -2.1001 0.2463 21.4369 -0.0574 0.9142 5.9248 0.8604 0.8879 -5.5310 -1.0022 2.4345 -28.6354 -6.2735 5.1980 12.1997 -1.2067 1.7998 8.5627 0.0000 -0.0000 0.0000 -80.1575 -28.5166 32.6806 52.3425 -53.8977 -28.0560 -0.0000 0.0000 -22.9074 33.8268 -14.0397 -9.2336 -7.1250 0.0000 -0.0000 4.2917 13.2615 -3.2019 0.0000 -0.0000 0.0000 79.8834 28.4633 21.9568 -55.6215 55.0256 -30.7246 0.0000 -0.0000 -8.3002 -23.4770 -28.2028 11.5997 7.1250 -0.0000 -0.0000 8.2502 -60.1039 -3.0526
-21.2622 14.3457 -0.5864 176.6200 3.9924 -165.6990 0.0000 0.0000 0.0000 -7.5610 6.6664 -54.4169 11.8192 18.3132 65.4146 1.2247 -1.7714 -20.4113 1.9206 -8.6987 -24.8574 0.0000 0.0000 0.0000 -6.7649 -7.8868 -51.5164 -9.0008 -16.8082 56.0928 -0.5612 1.6409 -13.6825 -1.0523 6.5229 -18.3094 -2.1120 0.2744 21.4968 -0.1017 0.9330 5.8619 0.8131 0.8944 -5.6302 -0.8997 2.4337 -28.6893 -6.2201 5.1488 12.3671 -1.2123 1.7764 8.6279 -0.0000 -0.0000 0.0000 -80.0213 -28.3319 32.8006 52.1151 -53.8137 -27.8724 -0.0000 0.0000 -22.9231 33.8812 -14.1880 -9.3463 -7.1250 0.0000 -0.0000 4.3081 13.0782 -3.2309 -0.0000 -0.0000 0.0000 79.8139 28.2040 22.1309 -55.9036 55.1157 -30.9559 0.0000 -0.0000 -8.3743 -23.5633 -27.8859 11.5291 7.1250 -0.0000 -0.0000 7.9858 -59.7999 -2.8961
-21.2601 14.3400 -0.5875 176.6010 4.0254 -165.6400 0.0000 0.0000 0.0000 -7.5784 6.6544 -54.4805 11.8278 18.3169 65.4419 1.2245 -1.6570 -20.4386 1.9775 -8.8191 -25.2310 0.0000 0.0000 0.0000 -6.6462 -8.0893 -51.6988 -9.0162 -16.8181 56.1460 -0.5577 1.7596 -13.6114 -1.0624 6.5532 -18.3983 -2.1727 0.2925 21.4379 -0.0819 0.9448 5.8680 0.8670 0.8994 -5.5942 -0.2993 2.5825 -28.4241 -6.8835 5.2433 12.0344 -1.5210 1.8002 8.5140 -0.0000 0.0000 0.0000 -79.9267 -28.0415 32.9103 52.2566 -53.8660 -27.9866 -0.0000 0.0000 -22.8689 34.0360 -14.3250 -9.4873 -7.1250 0.0000 -0.0000 4.3925 12.8904 -3.3119 -0.0000 0.0000 0.0000 79.5708 28.0234 22.3398 -56.3139 55.2449 -31.2927 0.0000 -0.0000 -8.5801 -23.5747 -27.7727 11.4933 7.1250 -0.0000 -0.0000 7.9146 -59.6867 -2.8486
-21.2585 14.3416 -0.5874 176.5690 4.0275 -165.5990 0.0000 0.0000 0.0000 -7.5947 6.6056 -54.5112 11.8370 18.3209 65.4711 1.2262 -1.6493 -20.4552 1.9986 -8.8632 -25.3684 0.0000 0.0000 0.0000 -6.6567 -8.1933 -51.8189 -9.0366 -16.8312 56.2166 -0.5572 1.9723 -13.5604 -1.0251 6.4406 -18.0683 -2.2630 0.2515 21.4159 -0.0333 0.8789 5.8917 0.9884 0.8684 -5.5561 0.0101 2.6925 -28.3095 -7.3180 5.3601 11.8458 -1.7008 1.8367 8.4603 -0.0000 -0.0000 0.0000 -79.8401 -27.5269 32.8123 52.8386 -54.0781 -28.4573 -0.0000 0.0000 -22.8460 33.7484 -14.1994 -9.3076 -7.1250 0.0000 -0.0000 4.2182 13.0883 -3.1621 -0.0000 -0.0000 0.0000 79.2870 27.8944 22.7272 -56.7048 55.3659 -31.6141 0.0000 -0.0000 -8.9414 -23.7728 -27.6556 11.5551 7.1250 -0.0000 -0.0000 7.6325 -59.6136 -2.7330
-21.2580 14.3439 -0.5885 176.5490 4.0315 -165.5840 0.0000 0.0000 0.0000 -7.5736 6.5353 -54.5003 11.8460 18.3248 65.5000 1.2310 -1.7016 -20.4828 1.9476 -8.7561 -25.0352 0.0000 0.0000 0.0000 -6.6677 -8.2652 -51.8813 -9.0521 -16.8411 56.2701 -0.5543 2.0976 -13.5002 -0.9508 6.2097 -17.3941 -2.2000 0.2278 21.5177 -0.0582 0.8560 5.8657 0.9297 0.8574 -5.6355 0.1709 2.6919 -28.4175 -7.5213 5.3553 12.0008 -1.7969 1.8123 8.5431 0.0000 0.0000 0.0000 -79.7712 -27.1230 32.9161 53.2461 -54.2236 -28.7876 -0.0000 0.0000 -23.0417 33.4827 -14.0596 -9.1287 -7.1250 0.0000 -0.0000 4.0594 13.2976 -3.0247 0.0000 0.0000 0.0000 79.1952 27.6578 22.8728 -57.0764 55.4792 -31.9201 0.0000 -0.0000 -9.2365 -23.7274 -27.4782 11.4645 7.1250 -0.0000 -0.0000 7.5942 -59.4204 -2.6841
-21.2567 14.3359 -0.5905 176.5510 4.0594 -165.6010 0.0000 0.0000 0.0000 -7.5663 6.5404 -54.4839 11.8582 18.3300 65.5386 1.2320 -1.5803 -20.5221 1.9900 -8.8452 -25.3123 0.0000 0.0000 0.0000 -6.6353 -8.3538 -51.9176 -9.0608 -16.8467 56.3001 -0.5542 2.1980 -13.4796 -0.9395 6.1736 -17.2891 -1.9886 0.2858 21.6511 -0.1734 0.9721 5.8606 0.6527 0.9157 -5.7103 0.3792 2.5952 -28.5032 -7.6270 5.1787 12.1563 -1.8945 1.7189 8.6118 -0.0000 -0.0000 0.0000 -79.6946 -27.0105 33.4219 53.3512 -54.2608 -28.8729 -0.0000 0.0000 -23.1794 33.4466 -13.8750 -9.0010 -7.1250 0.0000 -0.0000 4.0593 13.5194 -3.0056 -0.0000 -0.0000 0.0000 79.2229 27.3329 22.6031 -57.4183 55.5818 -32.2019 0.0000 -0.0000 -9.4038 -23.3962 -27.2946 11.2219 7.1250 -0.0000 -0.0000 7.8719 -59.1538 -2.7327
